External Loads File
version=1
nRows=92
nColumns=13
Range=5.000000e-03-10 seconds
endheader
time 	forceRightX 	forceRightY 	forceRightZ 	pointRightX 	pointRightY 	pointRightZ 	forceLeftX 	forceLeftY 	forceLeftZ 	pointLeftX 	pointLeftY 	pointLeftZ 		
2.505000 -313.254293 850.723476 -0.000000 0.440473 0.350911 -0.106556 43.971691 -56.776882 -0.000000 0.154656 0.260865 -0.353740
2.510000 -320.424874 869.642223 -0.000000 0.442791 0.340665 -0.106572 42.861152 -54.253292 -0.000000 0.153356 0.270607 -0.353829
2.515000 -323.789740 892.416686 -0.000000 0.444500 0.330190 -0.106589 41.187860 -52.999332 -0.000000 0.152592 0.280556 -0.353844
2.520000 -322.743962 918.398015 -0.000000 0.445625 0.319617 -0.106423 38.845949 -52.845357 -0.000000 0.152252 0.290757 -0.353877
2.525000 -317.743909 946.270870 -0.000000 0.446166 0.309130 -0.106276 35.778407 -53.506791 -0.000000 0.152402 0.301068 -0.353754
2.530000 -308.092494 974.937598 -0.000000 0.446075 0.298646 -0.106179 31.883716 -54.684895 -0.000000 0.153053 0.311499 -0.353675
2.535000 -293.495033 1003.070193 -0.000000 0.445460 0.288082 -0.106068 27.165725 -56.045652 -0.000000 0.154274 0.321990 -0.353544
2.540000 -275.520457 1028.840810 -0.000000 0.444414 0.277674 -0.105914 21.829800 -57.276799 -0.000000 0.155972 0.332369 -0.353314
2.545000 -252.401750 1051.459746 -0.000000 0.442646 0.267446 -0.106056 15.977785 -58.283945 -0.000000 0.158294 0.343158 -0.353145
2.550000 -228.626491 1068.715613 -0.000000 0.440406 0.257347 -0.105930 10.096059 -59.024306 -0.000000 0.160944 0.353254 -0.352897
2.555000 -202.295563 1080.220658 -0.000000 0.437607 0.247555 -0.105949 4.280413 -59.693516 -0.000000 0.164038 0.363470 -0.352720
2.560000 -174.758323 1085.034685 -0.000000 0.434362 0.238048 -0.105914 -1.276122 -60.484110 -0.000000 0.167642 0.373566 -0.352499
2.565000 -148.087019 1082.411824 -0.000000 0.430522 0.229030 -0.105752 -6.438481 -61.587618 -0.000000 0.171615 0.383234 -0.352324
2.570000 -120.436416 1072.407075 -0.000000 0.426303 0.220203 -0.105708 -11.380510 -63.120378 -0.000000 0.176091 0.392941 -0.352185
2.575000 -92.732623 1054.841851 -0.000000 0.421663 0.211524 -0.105747 -16.187283 -65.129507 -0.000000 0.180962 0.402569 -0.352106
2.580000 -67.835171 1029.658019 -0.000000 0.416734 0.203293 -0.105690 -20.849926 -67.635630 -0.000000 0.186272 0.411529 -0.351597
2.585000 -43.723753 997.325825 -0.000000 0.411501 0.195290 -0.105586 -25.655615 -70.499099 -0.000000 0.192262 0.420088 -0.351868
2.590000 -21.980485 958.051902 -0.000000 0.405827 0.187816 -0.105497 -30.631142 -73.579660 -0.000000 0.198320 0.428270 -0.351857
2.595000 -1.636428 912.175244 -0.000000 0.399817 0.180757 -0.105459 -35.946005 -76.667712 -0.000000 0.204773 0.436015 -0.351786
2.600000 18.047542 859.975225 -0.000000 0.393401 0.174086 -0.105375 -41.754755 -79.555488 -0.000000 0.211763 0.443247 -0.351833
2.605000 36.080569 801.785066 -0.000000 0.386659 0.167903 -0.105235 -48.066775 -82.082133 -0.000000 0.218806 0.450083 -0.351995
2.610000 53.315512 737.985934 -0.000000 0.379637 0.162215 -0.105050 -55.056254 -83.909961 -0.000000 0.226422 0.456240 -0.352033
2.615000 69.635740 669.091808 -0.000000 0.372213 0.157098 -0.104932 -62.765017 -84.603104 -0.000000 0.234353 0.461852 -0.352373
2.620000 84.495382 595.885421 -0.000000 0.364552 0.152361 -0.104833 -71.058687 -83.639392 -0.000000 0.242565 0.466435 -0.352534
2.625000 98.319035 519.380604 -0.000000 0.356526 0.148242 -0.104660 -79.748556 -80.349851 -0.000000 0.250884 0.470856 -0.352821
2.630000 111.002423 441.094668 -0.000000 0.348179 0.144970 -0.104433 -88.408836 -74.149315 -0.000000 0.259478 0.474732 -0.353231
2.635000 122.804990 362.924585 -0.000000 0.339236 0.142534 -0.104377 -96.577321 -64.472620 -0.000000 0.268151 0.478041 -0.353592
2.640000 133.703010 287.115282 -0.000000 0.329815 0.140592 -0.104183 -103.751977 -50.897357 -0.000000 0.276695 0.480997 -0.353940
2.645000 143.950498 215.776375 -0.000000 0.319887 0.139382 -0.104154 -109.602224 -32.961550 -0.000000 0.285231 0.483331 -0.354289
2.650000 153.429467 150.832734 -0.000000 0.309465 0.138835 -0.104084 -113.971784 -10.280254 -0.000000 0.293460 0.485198 -0.354503
2.655000 162.020589 93.594271 -0.000000 0.298585 0.139003 -0.103886 -116.968778 17.708483 -0.000000 0.301548 0.486446 -0.354765
2.660000 169.117994 45.148767 -0.000000 0.287627 0.139657 -0.103305 -118.880035 51.392356 -0.000000 0.309433 0.486960 -0.354877
2.665000 174.111454 6.417913 -0.000000 0.277338 0.140707 -0.103211 -120.369705 90.826689 -0.000000 0.316909 0.486953 -0.354967
2.670000 176.719474 -22.721842 -0.000000 0.267614 0.142377 -0.103246 -122.212140 136.124782 -0.000000 0.323911 0.486264 -0.355055
2.675000 176.838132 -43.206566 -0.000000 0.258156 0.144688 -0.103453 -125.015632 187.063216 -0.000000 0.330537 0.484719 -0.355325
2.680000 174.757017 -56.320596 -0.000000 0.248909 0.147345 -0.103613 -129.434696 242.710625 -0.000000 0.336902 0.482719 -0.355438
2.685000 171.078614 -63.744408 -0.000000 0.239807 0.150391 -0.103836 -136.005756 301.658645 -0.000000 0.343078 0.480135 -0.355584
2.690000 166.459851 -67.261757 -0.000000 0.230852 0.154475 -0.103893 -145.026916 362.227613 -0.000000 0.349058 0.476800 -0.355722
2.695000 161.415775 -68.426069 -0.000000 0.222072 0.159097 -0.103900 -156.531632 422.669934 -0.000000 0.355094 0.472444 -0.356029
2.700000 156.289802 -68.314779 -0.000000 0.213560 0.164325 -0.103892 -170.541826 481.248700 -0.000000 0.361145 0.467244 -0.356370
2.705000 151.298488 -67.504389 -0.000000 0.205512 0.170061 -0.103928 -187.399795 536.280958 -0.000000 0.366936 0.461447 -0.356609
2.710000 146.352977 -66.680309 -0.000000 0.197971 0.176196 -0.103913 -205.986571 586.883398 -0.000000 0.372882 0.455074 -0.356773
2.715000 141.392251 -66.162229 -0.000000 0.190946 0.182663 -0.103962 -225.401190 632.477645 -0.000000 0.378953 0.448101 -0.356901
2.720000 136.346510 -66.231005 -0.000000 0.184198 0.190052 -0.103828 -244.173152 673.122774 -0.000000 0.384696 0.440560 -0.357077
2.725000 131.343797 -66.755974 -0.000000 0.177992 0.197586 -0.103868 -262.409999 708.692176 -0.000000 0.390358 0.432617 -0.356981
2.730000 126.461160 -67.666449 -0.000000 0.172488 0.205329 -0.103872 -280.013743 739.409202 -0.000000 0.395633 0.424208 -0.357128
2.735000 121.595269 -69.102976 -0.000000 0.167340 0.213612 -0.103773 -295.473565 766.267516 -0.000000 0.400465 0.415332 -0.357369
2.740000 116.709924 -70.941927 -0.000000 0.162709 0.222147 -0.103588 -308.518121 789.985602 -0.000000 0.405380 0.406044 -0.357459
2.745000 111.789837 -72.987118 -0.000000 0.158670 0.231130 -0.103601 -319.481894 811.155083 -0.000000 0.410058 0.396422 -0.357504
2.750000 106.833969 -75.059657 -0.000000 0.155220 0.240408 -0.103611 -328.902014 830.325444 -0.000000 0.414217 0.386433 -0.357729
2.755000 101.790335 -77.117737 -0.000000 0.152249 0.249914 -0.103529 -336.505578 848.333097 -0.000000 0.418010 0.376092 -0.358003
2.760000 96.650093 -79.106145 -0.000000 0.149833 0.259770 -0.103554 -342.378037 865.784691 -0.000000 0.421422 0.365548 -0.358008
2.765000 91.404690 -80.984325 -0.000000 0.147377 0.269829 -0.104217 -346.916259 883.012361 -0.000000 0.424328 0.355027 -0.357908
2.770000 86.034408 -82.718824 -0.000000 0.146105 0.279926 -0.104338 -350.844669 899.999950 -0.000000 0.426749 0.344324 -0.357790
2.775000 80.253712 -84.578951 -0.000000 0.145443 0.290328 -0.104338 -352.121153 917.572221 -0.000000 0.428591 0.333399 -0.357710
2.780000 74.018840 -86.644728 -0.000000 0.145420 0.300806 -0.104385 -351.112100 935.382983 -0.000000 0.429923 0.322395 -0.357649
2.785000 67.162626 -89.151382 -0.000000 0.145679 0.311482 -0.104521 -346.769658 953.383405 -0.000000 0.430637 0.311350 -0.357632
2.790000 59.672987 -92.145393 -0.000000 0.146675 0.322011 -0.104720 -340.038676 970.570851 -0.000000 0.430693 0.300424 -0.357602
2.795000 51.208142 -95.804143 -0.000000 0.148399 0.332799 -0.104860 -328.533642 987.000094 -0.000000 0.430068 0.289556 -0.357467
2.800000 41.843786 -99.985020 -0.000000 0.151522 0.343220 -0.104482 -313.711282 1001.315132 -0.000000 0.429171 0.278798 -0.357944
2.805000 31.523633 -104.643820 -0.000000 0.154245 0.353768 -0.104737 -294.641263 1012.971213 -0.000000 0.427462 0.268187 -0.357510
2.810000 20.424871 -109.639288 -0.000000 0.157669 0.364269 -0.105066 -271.823638 1020.979887 -0.000000 0.425288 0.257814 -0.357407
2.815000 8.694982 -114.824175 -0.000000 0.161632 0.374919 -0.105360 -244.699589 1024.669449 -0.000000 0.422573 0.247639 -0.357327
2.820000 -3.152211 -120.007515 -0.000000 0.166105 0.385063 -0.105641 -215.396954 1022.762999 -0.000000 0.419386 0.237553 -0.357327
2.825000 -14.795115 -125.053709 -0.000000 0.170950 0.394968 -0.106018 -184.070432 1014.640162 -0.000000 0.415667 0.227724 -0.357375
2.830000 -25.892263 -129.824027 -0.000000 0.176145 0.404575 -0.106287 -151.624622 999.666178 -0.000000 0.411523 0.218166 -0.357411
2.835000 -36.307703 -134.141864 -0.000000 0.181876 0.413946 -0.106621 -118.330057 977.490229 -0.000000 0.406904 0.209027 -0.357371
2.840000 -45.835329 -137.836668 -0.000000 0.187944 0.422891 -0.107020 -85.886346 947.794859 -0.000000 0.401880 0.200390 -0.357314
2.845000 -54.618455 -140.624578 -0.000000 0.194387 0.431414 -0.107387 -54.102712 910.751316 -0.000000 0.396398 0.192038 -0.357225
2.850000 -63.159263 -142.042892 -0.000000 0.202425 0.439729 -0.106885 -21.171524 866.739205 -0.000000 0.390602 0.184127 -0.357018
2.855000 -70.447081 -142.302536 -0.000000 0.208914 0.447688 -0.108472 5.339772 816.187711 -0.000000 0.384393 0.176842 -0.356803
2.860000 -77.260733 -140.859320 -0.000000 0.215934 0.454912 -0.108798 29.349219 760.328780 -0.000000 0.377828 0.169963 -0.356602
2.865000 -83.925850 -137.302774 -0.000000 0.224145 0.461245 -0.108764 51.891225 700.391258 -0.000000 0.370872 0.163598 -0.356441
2.870000 -90.259531 -131.535095 -0.000000 0.232653 0.467431 -0.108992 71.646306 637.975776 -0.000000 0.363561 0.157977 -0.356251
2.875000 -96.132720 -123.521205 -0.000000 0.241165 0.472710 -0.109132 88.186982 574.909803 -0.000000 0.355724 0.152843 -0.356172
2.880000 -101.673337 -113.070356 -0.000000 0.250189 0.477500 -0.109427 102.668023 512.807431 -0.000000 0.347503 0.148393 -0.356026
2.885000 -106.624800 -100.251107 -0.000000 0.259062 0.481837 -0.109521 114.753279 453.284996 -0.000000 0.338771 0.144571 -0.355975
2.890000 -110.903487 -84.881332 -0.000000 0.268054 0.485431 -0.109656 125.206328 397.356799 -0.000000 0.329617 0.141318 -0.355880
2.895000 -114.295364 -66.801516 -0.000000 0.277054 0.488415 -0.109785 134.306813 345.586774 -0.000000 0.320192 0.138710 -0.355875
2.900000 -116.611451 -45.864804 -0.000000 0.285656 0.490733 -0.109989 142.179257 298.049923 -0.000000 0.310476 0.136856 -0.355809
2.905000 -117.861846 -21.650238 -0.000000 0.294260 0.492391 -0.110341 149.463066 254.085798 -0.000000 0.300535 0.135696 -0.355689
2.910000 -118.076816 6.060723 -0.000000 0.302604 0.493453 -0.110446 155.896071 213.107388 -0.000000 0.290484 0.135192 -0.355656
2.915000 -117.526007 37.623487 -0.000000 0.310587 0.493804 -0.110625 161.229072 174.458227 -0.000000 0.280380 0.135386 -0.355702
2.920000 -116.640802 73.452139 -0.000000 0.318227 0.493425 -0.110679 165.061271 137.667899 -0.000000 0.270323 0.136323 -0.355709
2.925000 -115.960077 113.869088 -0.000000 0.325595 0.492194 -0.110843 166.845639 102.628865 -0.000000 0.260503 0.138009 -0.355861
2.930000 -116.259486 158.820697 -0.000000 0.332379 0.489730 -0.110686 165.980785 69.775154 -0.000000 0.251110 0.140153 -0.355903
2.935000 -118.375934 207.923244 -0.000000 0.338741 0.486896 -0.110380 162.251538 39.621049 -0.000000 0.242290 0.142862 -0.355858
2.940000 -122.671920 260.500236 -0.000000 0.344950 0.483251 -0.110041 155.849813 12.370211 -0.000000 0.233770 0.146113 -0.356033
2.945000 -129.545601 315.200553 -0.000000 0.351100 0.478816 -0.109840 147.189284 -11.623242 -0.000000 0.225601 0.149945 -0.355937
2.950000 -139.127763 370.356859 -0.000000 0.357310 0.473746 -0.109773 136.952024 -32.202015 -0.000000 0.217705 0.154381 -0.355680
2.955000 -151.333837 424.218053 -0.000000 0.363609 0.467807 -0.109814 125.887283 -49.336233 -0.000000 0.210054 0.159382 -0.355464
2.960000 -166.101993 475.174061 -0.000000 0.369973 0.461073 -0.109587 114.689252 -62.999595 -0.000000 0.202693 0.164974 -0.355312
